<?xml version="1.0" encoding="utf-8"?>
<!-- Generator: Adobe Illustrator 27.3.1, SVG Export Plug-In . SVG Version: 6.00 Build 0)  -->
<svg version="1.1" id="Layer_1" xmlns="http://www.w3.org/2000/svg" xmlns:xlink="http://www.w3.org/1999/xlink" x="0px" y="0px"
	 viewBox="0 0 687 255" style="enable-background:new 0 0 687 255;" xml:space="preserve">
<style type="text/css">
	.st0{fill-rule:evenodd;clip-rule:evenodd;}
</style>
<path class="st0" d="M0,202h18.1v-0.9h-4.3v-53.9v-0.9L92,213.2V14.2h-2.3l-9,181.8L4.1,117.6v83.6H0V202z"/>
<path class="st0" d="M92,137.6C92.1,137.6,92.1,137.6,92,137.6c13.9-1.5,25.4-10.4,30.6-22.6c2.9-6.8,2.8-12.3-0.2-19
	c-6.3-13.9-20.6-23.1-36.7-22.2c-5.9,0.3-11.4,2-16.3,4.7C62,82.7,56.2,89.3,53,97.3c-1.6,4-2.1,7.5-2.1,10.9
	c0,4.2,0.9,8.4,3.4,13.1c6.3,12.3,19.5,20.8,35.8,20.7c26.6,0.5,47.9,16.8,54.8,40.3s-2.3,48.7-22.6,62.4s-47.2,12.6-66.5-2.6
	c-19.2-15.2-26.4-41-17.7-63.9l1.3,1.1c-8.8,20.3-3.2,44,13.6,58.4s41.2,16.1,60,4.4c18.8-11.8,27.7-34.4,22-55.8
	c-5.7-21.4-24.7-36.6-46.9-37.4c-19.7,0-36-15.1-37.6-34.5c-1.2-15.2,1.1-31.6,17.9-41.9C74,69,80.8,67,88,67
	c17.6,0,32.4,12,36.6,28.3c2.1,8.1,1.4,16.9-2.1,24.6c-5.3,12-16.8,20.7-30.5,22.2C92,140.5,92,139.1,92,137.6z"/>
<path class="st0" d="M91.3,0c3.3,0,5.9,2.6,5.9,5.9c0,3.2-2.6,5.9-5.9,5.9s-5.9-2.6-5.9-5.9C85.4,2.6,88.1,0,91.3,0z"/>
<path d="M174.5,146V93h7l32.7,44.6V93h6v53h-7l-32.7-44.7V146H174.5z M266.3,146.6c-4,0-7.7-0.7-11-2.1c-3.3-1.4-6.2-3.3-8.6-5.8
	c-2.3-2.5-4.2-5.4-5.4-8.6c-1.3-3.3-1.9-6.8-1.9-10.6c0-3.8,0.6-7.3,1.9-10.6s3.1-6.1,5.4-8.6c2.4-2.5,5.3-4.5,8.6-5.8
	c3.3-1.4,7-2.1,11-2.1s7.7,0.7,11,2.1c3.3,1.4,6.1,3.3,8.5,5.8c2.4,2.5,4.2,5.4,5.5,8.6s1.9,6.8,1.9,10.6c0,3.7-0.6,7.3-1.9,10.6
	c-1.3,3.3-3.1,6.1-5.5,8.6c-2.3,2.5-5.2,4.5-8.5,5.8C273.9,145.9,270.3,146.6,266.3,146.6z M266.3,140.8c4.3,0,8-0.9,11.1-2.8
	c3.1-1.9,5.5-4.5,7.2-7.7c1.7-3.3,2.6-6.9,2.6-10.8c0-4-0.9-7.6-2.6-10.8c-1.7-3.2-4.1-5.7-7.2-7.6c-3.1-1.9-6.8-2.9-11.1-2.9
	c-4.3,0-8,1-11.1,2.9c-3.1,1.9-5.6,4.4-7.3,7.6c-1.7,3.2-2.5,6.8-2.5,10.8c0,3.9,0.8,7.5,2.5,10.8c1.7,3.2,4.1,5.8,7.3,7.7
	C258.3,139.9,262,140.8,266.3,140.8z M326.6,146l-21.4-53h6.6l18.3,46.2L348.4,93h6.6l-21.4,53H326.6z M361.6,146l22.5-53h7.5
	l22.5,53h-6.6l-6.5-15.4h-26.2l-6.5,15.4H361.6z M377,125.1h21.6l-10.8-25.8L377,125.1z M449.3,146.6c-5.2,0-9.5-0.7-12.7-2.1
	c-3.3-1.4-5.7-3.4-7.4-5.9c-1.6-2.5-2.5-5.3-2.8-8.5h6.2c0.2,2.6,1,4.6,2.6,6.2c1.5,1.5,3.6,2.7,6.1,3.4c2.6,0.7,5.4,1.1,8.4,1.1
	c4.5,0,8-0.8,10.6-2.3c2.6-1.6,3.9-3.9,3.9-7c0-1.9-0.7-3.4-2-4.5c-1.3-1.2-3-2.1-5.2-2.9c-2.1-0.7-4.5-1.4-7-2
	c-2.6-0.6-5.1-1.3-7.8-2c-2.6-0.7-4.9-1.6-7.1-2.6c-2.1-1.1-3.9-2.4-5.2-4.1c-1.3-1.7-1.9-3.9-1.9-6.5c0-4.3,1.7-7.8,5-10.6
	c3.4-2.7,8.3-4.1,15-4.1c4.7,0,8.6,0.7,11.6,2.2c3,1.4,5.3,3.2,6.8,5.5c1.5,2.3,2.4,4.8,2.6,7.4h-6.2c-0.3-2.7-1.7-4.9-4-6.7
	c-2.3-1.9-5.9-2.8-10.8-2.8c-3,0-5.4,0.3-7.3,0.9c-1.9,0.6-3.3,1.4-4.3,2.3c-1,0.9-1.6,1.9-2,2.9c-0.3,1-0.5,2-0.5,2.9
	c0,1.8,0.6,3.2,1.9,4.3c1.3,1.1,3.1,2,5.2,2.7c2.2,0.7,4.6,1.3,7.2,1.9c2.6,0.6,5.2,1.3,7.8,2c2.6,0.7,5,1.6,7.1,2.7
	c2.2,1.1,3.9,2.5,5.2,4.2c1.3,1.7,2,3.9,2,6.6c0,4.9-1.9,8.7-5.6,11.4C461,145.3,455.8,146.6,449.3,146.6z"/>
<path d="M487.5,146V93h6v27.6L522.9,93h8.5l-22.6,21.3l23.8,31.7h-7.5l-20.7-27.6l-11,10.2V146H487.5z"/>
<path d="M546.5,146V93h6v53H546.5z M575.1,146V93h7l32.7,44.6V93h6v53h-7l-32.7-44.7V146H575.1z M662.3,146.6
	c-5.2,0-9.5-0.7-12.7-2.1c-3.3-1.4-5.7-3.4-7.4-5.9c-1.6-2.5-2.5-5.3-2.8-8.5h6.2c0.2,2.6,1,4.6,2.6,6.2c1.5,1.5,3.6,2.7,6.1,3.4
	c2.6,0.7,5.4,1.1,8.4,1.1c4.5,0,8-0.8,10.6-2.3c2.6-1.6,3.9-3.9,3.9-7c0-1.9-0.7-3.4-2-4.5c-1.3-1.2-3-2.1-5.2-2.9
	c-2.1-0.7-4.5-1.4-7-2c-2.6-0.6-5.1-1.3-7.8-2c-2.6-0.7-4.9-1.6-7.1-2.6c-2.1-1.1-3.9-2.4-5.2-4.1c-1.3-1.7-1.9-3.9-1.9-6.5
	c0-4.3,1.7-7.8,5-10.6c3.4-2.7,8.3-4.1,15-4.1c4.7,0,8.6,0.7,11.6,2.2c3,1.4,5.3,3.2,6.8,5.5c1.5,2.3,2.4,4.8,2.6,7.4h-6.2
	c-0.3-2.7-1.7-4.9-4-6.7c-2.3-1.9-5.9-2.8-10.8-2.8c-3,0-5.4,0.3-7.3,0.9c-1.9,0.6-3.3,1.4-4.3,2.3c-1,0.9-1.6,1.9-2,2.9
	c-0.3,1-0.5,2-0.5,2.9c0,1.8,0.6,3.2,1.9,4.3c1.3,1.1,3.1,2,5.2,2.7c2.2,0.7,4.6,1.3,7.2,1.9c2.6,0.6,5.2,1.3,7.8,2
	c2.6,0.7,5,1.6,7.1,2.7c2.2,1.1,3.9,2.5,5.2,4.2c1.3,1.7,2,3.9,2,6.6c0,4.9-1.9,8.7-5.6,11.4C673.9,145.3,668.8,146.6,662.3,146.6z"
	/>
<path d="M269.9,217v-23.8h17.5v2.6h-14.8v8h13.2v2.6h-13.2v8h14.8v2.6H269.9z M288.5,217l6.9-9.3l-6.5-8.7h3.5l4.6,6.8l4.6-6.8h3.5
	l-6.5,8.7l7,9.3h-3.5l-5.1-7.3l-5.1,7.3H288.5z M314.5,217.3c-1.8,0-3.4-0.4-4.7-1.2c-1.3-0.8-2.4-2-3.1-3.4c-0.7-1.4-1.1-3-1.1-4.7
	c0-1.7,0.4-3.3,1.1-4.7c0.7-1.4,1.8-2.5,3.1-3.3c1.3-0.8,2.9-1.3,4.7-1.3c2.1,0,3.9,0.6,5.4,1.7c1.5,1.1,2.5,2.5,3.1,4.3H320
	c-0.4-1-1.1-1.9-2-2.5c-0.9-0.6-2-1-3.2-1c-1.3,0-2.5,0.3-3.5,0.9c-1,0.6-1.7,1.5-2.3,2.5c-0.5,1-0.8,2.2-0.8,3.4
	c0,1.2,0.3,2.4,0.8,3.4c0.5,1,1.3,1.9,2.3,2.5c1,0.6,2.1,0.9,3.5,0.9c1.3,0,2.4-0.3,3.2-1c0.9-0.6,1.6-1.5,2-2.5h2.9
	c-0.5,1.8-1.5,3.2-3.1,4.3C318.4,216.7,316.6,217.3,314.5,217.3z M333.7,217.3c-1.8,0-3.4-0.4-4.8-1.2c-1.4-0.8-2.4-2-3.2-3.4
	c-0.7-1.4-1.1-3-1.1-4.7c0-1.7,0.4-3.3,1.1-4.7c0.7-1.4,1.8-2.5,3.1-3.3c1.3-0.8,2.9-1.3,4.8-1.3c1.8,0,3.4,0.4,4.8,1.3
	c1.3,0.8,2.4,1.9,3.1,3.3c0.7,1.4,1.1,3,1.1,4.7v1.1h-15.1c0.1,1.1,0.5,2,1,2.9c0.6,0.9,1.3,1.6,2.2,2.1c0.9,0.5,2,0.8,3.2,0.8
	c1.3,0,2.3-0.3,3.2-0.8c0.9-0.6,1.5-1.3,2-2.2h3c-0.6,1.6-1.6,2.9-3,4C337.6,216.8,335.9,217.3,333.7,217.3z M327.4,206.6h12.2
	c-0.2-1.5-0.9-2.8-1.9-3.9c-1.1-1-2.4-1.5-4.2-1.5s-3.1,0.5-4.2,1.5C328.4,203.7,327.7,205,327.4,206.6z M345.3,217v-25.2h2.7V217
	H345.3z M352.1,217v-25.2h2.7V217H352.1z M366.9,217.3c-1.8,0-3.4-0.4-4.8-1.2c-1.4-0.8-2.4-2-3.2-3.4c-0.7-1.4-1.1-3-1.1-4.7
	c0-1.7,0.4-3.3,1.1-4.7c0.7-1.4,1.8-2.5,3.1-3.3c1.3-0.8,2.9-1.3,4.8-1.3c1.8,0,3.4,0.4,4.8,1.3c1.3,0.8,2.4,1.9,3.1,3.3
	c0.7,1.4,1.1,3,1.1,4.7v1.1h-15.1c0.1,1.1,0.5,2,1,2.9c0.6,0.9,1.3,1.6,2.2,2.1c0.9,0.5,2,0.8,3.2,0.8c1.3,0,2.3-0.3,3.2-0.8
	c0.9-0.6,1.5-1.3,2-2.2h3c-0.6,1.6-1.6,2.9-3,4C370.8,216.8,369.1,217.3,366.9,217.3z M360.6,206.6h12.2c-0.2-1.5-0.9-2.8-1.9-3.9
	c-1.1-1-2.4-1.5-4.2-1.5s-3.1,0.5-4.2,1.5C361.5,203.7,360.9,205,360.6,206.6z M378.4,217v-18h2.7v2.8c0.6-0.9,1.4-1.6,2.4-2.2
	s2.1-0.9,3.6-0.9c1.2,0,2.4,0.3,3.5,0.9c1.1,0.6,2,1.5,2.7,2.6c0.7,1.2,1,2.6,1,4.3V217h-2.7v-10.4c0-1.6-0.5-2.9-1.4-3.9
	c-0.9-1-2.1-1.5-3.6-1.5c-1,0-1.9,0.2-2.7,0.7c-0.8,0.5-1.5,1.1-2,1.9c-0.5,0.8-0.7,1.8-0.7,2.8V217H378.4z M406,217.3
	c-1.8,0-3.4-0.4-4.7-1.2c-1.3-0.8-2.4-2-3.1-3.4c-0.7-1.4-1.1-3-1.1-4.7c0-1.7,0.4-3.3,1.1-4.7c0.7-1.4,1.8-2.5,3.1-3.3
	c1.3-0.8,2.9-1.3,4.7-1.3c2.1,0,3.9,0.6,5.4,1.7c1.5,1.1,2.5,2.5,3.1,4.3h-2.9c-0.4-1-1.1-1.9-2-2.5c-0.9-0.6-2-1-3.2-1
	c-1.3,0-2.5,0.3-3.5,0.9c-1,0.6-1.7,1.5-2.3,2.5c-0.5,1-0.8,2.2-0.8,3.4c0,1.2,0.3,2.4,0.8,3.4c0.5,1,1.3,1.9,2.3,2.5
	c1,0.6,2.1,0.9,3.5,0.9c1.3,0,2.4-0.3,3.2-1c0.9-0.6,1.6-1.5,2-2.5h2.9c-0.5,1.8-1.5,3.2-3.1,4.3C410,216.7,408.2,217.3,406,217.3z
	 M425.3,217.3c-1.8,0-3.4-0.4-4.8-1.2c-1.4-0.8-2.4-2-3.2-3.4c-0.7-1.4-1.1-3-1.1-4.7c0-1.7,0.4-3.3,1.1-4.7
	c0.7-1.4,1.8-2.5,3.1-3.3c1.3-0.8,2.9-1.3,4.8-1.3c1.8,0,3.4,0.4,4.8,1.3c1.3,0.8,2.4,1.9,3.1,3.3c0.7,1.4,1.1,3,1.1,4.7v1.1H419
	c0.1,1.1,0.5,2,1,2.9c0.6,0.9,1.3,1.6,2.2,2.1c0.9,0.5,2,0.8,3.2,0.8c1.3,0,2.3-0.3,3.2-0.8c0.9-0.6,1.5-1.3,2-2.2h3
	c-0.6,1.6-1.6,2.9-3,4C429.2,216.8,427.5,217.3,425.3,217.3z M419,206.6h12.2c-0.2-1.5-0.9-2.8-1.9-3.9c-1.1-1-2.4-1.5-4.2-1.5
	s-3.1,0.5-4.2,1.5C419.9,203.7,419.3,205,419,206.6z M443.8,196v-3.5h2.9v3.5H443.8z M444,217v-18h2.7v18H444z M450.8,217v-18h2.7
	v2.8c0.6-0.9,1.4-1.6,2.4-2.2c0.9-0.6,2.1-0.9,3.6-0.9c1.2,0,2.4,0.3,3.5,0.9c1.1,0.6,2,1.5,2.7,2.6c0.7,1.2,1,2.6,1,4.3V217H464
	v-10.4c0-1.6-0.5-2.9-1.4-3.9c-0.9-1-2.1-1.5-3.6-1.5c-1,0-1.9,0.2-2.7,0.7c-0.8,0.5-1.5,1.1-2,1.9c-0.5,0.8-0.7,1.8-0.7,2.8V217
	H450.8z M478.3,217v-23.8H489c1.9,0,3.3,0.3,4.4,1c1.1,0.6,1.9,1.5,2.4,2.4c0.5,1,0.7,1.9,0.7,2.9c0,1.5-0.3,2.7-1,3.6
	c-0.6,0.8-1.4,1.4-2.2,1.8c0.7,0.2,1.3,0.6,2,1c0.7,0.5,1.3,1.1,1.7,1.9c0.5,0.8,0.7,1.8,0.7,3c0,1.8-0.7,3.3-2.1,4.5
	c-1.3,1.2-3.4,1.8-6.1,1.8H478.3z M481,203.8h8c0.8,0,1.6-0.1,2.3-0.4c0.7-0.3,1.3-0.7,1.8-1.3c0.5-0.6,0.7-1.4,0.7-2.4
	c0-0.7-0.2-1.3-0.5-1.9c-0.3-0.6-0.8-1.1-1.4-1.5c-0.6-0.4-1.5-0.6-2.6-0.6H481V203.8z M481,214.4h8.9c1.6,0,2.9-0.3,3.8-1
	c0.9-0.7,1.4-1.7,1.4-2.9c0-1.1-0.4-2.1-1.3-3c-0.9-0.9-2.2-1.3-4.1-1.3H481V214.4z M509.1,217.3c-1.8,0-3.4-0.4-4.8-1.2
	c-1.4-0.8-2.4-2-3.2-3.4c-0.7-1.4-1.1-3-1.1-4.7c0-1.7,0.4-3.3,1.1-4.7c0.7-1.4,1.8-2.5,3.1-3.3c1.3-0.8,2.9-1.3,4.8-1.3
	c1.8,0,3.4,0.4,4.8,1.3c1.3,0.8,2.4,1.9,3.1,3.3c0.7,1.4,1.1,3,1.1,4.7v1.1h-15.1c0.1,1.1,0.5,2,1,2.9c0.6,0.9,1.3,1.6,2.2,2.1
	c0.9,0.5,2,0.8,3.2,0.8c1.3,0,2.3-0.3,3.2-0.8c0.9-0.6,1.5-1.3,2-2.2h3c-0.6,1.6-1.6,2.9-3,4C512.9,216.8,511.2,217.3,509.1,217.3z
	 M502.8,206.6H515c-0.2-1.5-0.9-2.8-1.9-3.9c-1.1-1-2.4-1.5-4.2-1.5s-3.1,0.5-4.2,1.5C503.7,203.7,503,205,502.8,206.6z
	 M528.2,217.3c-1.8,0-3.3-0.4-4.6-1.2c-1.3-0.8-2.3-2-3-3.4c-0.7-1.4-1.1-3-1.1-4.7c0-1.7,0.4-3.3,1.1-4.7c0.7-1.4,1.7-2.5,3-3.3
	c1.3-0.8,2.9-1.3,4.6-1.3c1.5,0,2.8,0.3,3.8,0.9c1.1,0.6,2,1.4,2.6,2.3V199h2.7v18h-2.7v-2.9c-0.7,1-1.5,1.7-2.6,2.3
	C530.9,217,529.7,217.3,528.2,217.3z M528.5,214.8c1.3,0,2.5-0.3,3.4-0.9c0.9-0.6,1.6-1.5,2.1-2.5c0.5-1.1,0.7-2.2,0.7-3.4
	c0-1.2-0.2-2.4-0.7-3.4c-0.5-1-1.2-1.9-2.1-2.5c-0.9-0.6-2-0.9-3.4-0.9c-1.3,0-2.5,0.3-3.4,0.9c-1,0.6-1.7,1.5-2.2,2.5
	c-0.5,1-0.8,2.2-0.8,3.4c0,1.2,0.3,2.4,0.8,3.4c0.5,1,1.2,1.9,2.2,2.5C526.1,214.5,527.2,214.8,528.5,214.8z M548.5,217.3
	c-1.2,0-2.4-0.3-3.5-0.9c-1.1-0.6-2-1.5-2.7-2.6c-0.7-1.2-1-2.6-1-4.3V199h2.7v10.4c0,1.6,0.5,3,1.4,4c1,1,2.2,1.5,3.6,1.5
	c1,0,1.9-0.2,2.7-0.7c0.8-0.5,1.5-1.1,1.9-1.9c0.5-0.8,0.8-1.8,0.8-2.8V199h2.7v18h-2.7v-2.8c-0.6,0.9-1.4,1.6-2.4,2.2
	C551.1,217,549.9,217.3,548.5,217.3z M563.2,217v-15.6h-3.7V199h3.7v-6.4h2.7v6.4h4.1v2.4h-4.1V217H563.2z M574.4,224.1l3.3-7.4
	l-7.3-17.7h3l5.8,14.8L585,199h3l-10.7,25.1H574.4z"/>
</svg>
